<?xml version="1.0" standalone="no"?>
<!DOCTYPE svg PUBLIC "-//W3C//DTD SVG 20010904//EN"
 "http://www.w3.org/TR/2001/REC-SVG-20010904/DTD/svg10.dtd">
<svg version="1.0" xmlns="http://www.w3.org/2000/svg"
 width="641.000000pt" height="641.000000pt" viewBox="0 0 641.000000 641.000000"
 preserveAspectRatio="xMidYMid meet">
<metadata>
Created by potrace 1.14, written by Peter Selinger 2001-2017
</metadata>
<g transform="translate(0.000000,641.000000) scale(0.100000,-0.100000)"
fill="#000000" stroke="none">
<path d="M3810 6379 c0 -17 27 -45 35 -37 3 3 -3 16 -14 29 -16 19 -20 20 -21
8z"/>
<path d="M3927 6356 c-18 -14 -22 -26 -9 -26 15 0 45 27 36 33 -5 3 -17 0 -27
-7z"/>
<path d="M2930 6171 c-74 -72 -142 -131 -150 -131 -8 0 -46 -8 -84 -17 -65
-17 -72 -22 -129 -88 -33 -38 -90 -99 -127 -135 -140 -136 -212 -254 -265
-436 -32 -108 -64 -286 -57 -319 3 -17 0 -25 -9 -26 -8 -1 -18 -2 -24 -4 -5
-1 -20 -3 -33 -3 -12 -1 -38 -17 -58 -35 -27 -25 -39 -46 -50 -92 -18 -80 -18
-150 2 -180 9 -14 14 -31 11 -38 -3 -8 3 -32 13 -54 18 -40 32 -49 115 -73 73
-21 70 -19 53 -37 -15 -14 -20 -14 -61 6 -158 77 -336 37 -443 -99 -82 -103
-102 -236 -51 -336 30 -59 92 -117 155 -146 40 -18 43 -22 37 -50 -49 -222
-57 -514 -25 -893 12 -143 23 -314 23 -380 l2 -120 -60 -6 c-65 -6 -165 -47
-203 -82 -49 -46 -68 -121 -37 -147 8 -7 15 -21 15 -31 0 -10 11 -31 24 -46
36 -41 92 -38 184 13 39 21 73 36 77 33 3 -4 -4 -127 -16 -275 -27 -333 -29
-645 -5 -794 43 -280 125 -465 273 -621 l35 -37 -38 -28 c-133 -103 -174 -156
-174 -229 0 -58 8 -72 78 -129 76 -62 125 -48 279 79 85 70 143 99 186 92 18
-3 71 -19 118 -35 212 -75 552 -114 812 -94 264 20 450 60 634 138 58 24 111
44 118 44 13 0 65 -49 147 -138 92 -101 146 -112 231 -47 44 33 67 75 67 120
0 45 -60 144 -124 202 l-64 58 65 80 c138 172 225 412 268 738 16 125 20 534
7 755 -4 63 -5 115 -4 117 2 2 31 -10 65 -26 100 -47 137 -37 182 52 30 61 31
93 5 137 -35 57 -163 122 -241 122 -15 0 -29 7 -33 16 -3 9 -6 149 -6 312 0
491 -21 787 -71 1036 -11 54 -19 100 -17 101 2 1 19 10 38 20 193 97 236 336
89 503 -30 34 -31 38 -24 97 11 104 -27 190 -97 219 l-28 12 -4 170 c-5 178
-14 253 -46 371 -31 113 -61 170 -161 304 -52 69 -114 156 -139 193 -45 66
-46 67 -128 93 l-83 27 -112 135 c-62 74 -115 139 -118 144 -4 5 -20 11 -35
12 -54 6 -359 24 -499 30 l-140 6 -135 -130z m164 93 c3 -9 6 -19 6 -22 0 -4
-52 -47 -115 -97 -81 -64 -114 -96 -115 -112 0 -11 16 -135 34 -275 19 -139
37 -273 41 -298 l5 -45 -14 31 c-20 41 -68 263 -97 443 l-24 144 130 123 c72
68 133 124 136 124 4 0 10 -7 13 -16z m100 8 c3 -4 -13 -143 -34 -308 -22
-164 -45 -338 -51 -386 -6 -48 -15 -85 -20 -83 -23 15 31 679 62 763 8 22 33
30 43 14z m421 -21 c46 -5 61 -10 63 -23 5 -24 -26 -23 -193 2 -71 11 -136 20
-143 20 -7 0 -10 5 -7 11 7 10 133 6 280 -10z m130 -38 c27 -31 30 -68 15
-143 -11 -52 -77 -472 -91 -574 -9 -69 -18 -96 -20 -60 -1 10 -1 22 -1 25 1 4
2 63 2 130 1 106 46 454 75 587 4 15 1 22 -10 22 -8 0 -15 9 -15 20 0 28 17
25 45 -7z m-1004 -244 c6 -29 24 -188 45 -404 2 -27 7 -70 10 -95 5 -33 3 -42
-5 -35 -14 13 -56 222 -82 408 -15 107 -17 143 -8 154 18 21 33 11 40 -28z
m1312 -41 c39 -15 32 -74 -8 -66 -14 2 -26 -14 -51 -72 -33 -76 -61 -140 -97
-220 -11 -25 -28 -64 -38 -87 -10 -23 -29 -65 -42 -95 -14 -29 -32 -69 -41
-88 -14 -33 -16 -33 -16 -9 0 37 107 331 184 507 24 52 35 90 31 103 -4 11 -1
26 5 34 11 14 19 13 73 -7z m126 -111 c46 -69 58 -107 34 -107 -4 0 -21 23
-37 51 l-29 51 -40 -98 c-128 -315 -166 -398 -172 -383 -8 20 37 165 109 357
30 78 52 151 49 161 -6 23 16 67 27 55 4 -5 31 -44 59 -87z m-1606 26 c8 -21
31 -72 50 -113 115 -247 144 -316 136 -324 -14 -15 -31 13 -140 230 -87 174
-100 204 -90 223 17 30 27 26 44 -16z m1738 -205 c75 -97 112 -167 142 -263
32 -102 57 -295 57 -436 0 -102 -1 -109 -20 -109 -11 0 -23 -1 -27 -2 -5 -2
-11 87 -14 197 -7 217 -23 303 -74 407 -34 66 -98 168 -107 168 -3 0 -75 -80
-158 -177 -84 -98 -161 -182 -171 -187 -14 -7 -25 -4 -39 9 -38 35 -14 97 26
64 17 -14 11 -19 95 81 30 36 56 67 59 70 5 5 122 141 148 172 10 12 11 21 3
36 -9 18 1 42 19 42 3 0 31 -33 61 -72z m-1258 -358 c-6 -162 -13 -220 -28
-223 -22 -5 -24 73 -5 219 11 84 20 158 20 165 0 11 2 11 10 -1 5 -9 7 -75 3
-160z m552 -91 c-8 -96 -15 -177 -15 -181 0 -4 9 -10 20 -13 39 -12 18 -45
-30 -45 -42 0 -43 19 -11 225 17 108 31 202 31 208 0 7 5 5 10 -4 6 -10 4 -81
-5 -190z m-671 139 c13 -48 44 -184 61 -265 5 -26 3 -33 -9 -33 -8 0 -20 8
-25 18 -8 15 -51 287 -51 322 0 25 11 6 24 -42z m739 -208 c-21 -56 -42 -101
-48 -100 -20 3 -7 46 58 190 37 82 29 17 -10 -90z m-1442 -90 c215 -69 561
-151 802 -190 59 -9 111 -20 115 -25 8 -8 -150 1 -273 16 -183 22 -449 84
-660 153 -55 18 -71 27 -73 44 -4 28 8 28 89 2z m2309 -242 c75 -38 110 -117
95 -208 l-7 -40 -29 17 c-15 9 -31 14 -35 10 -12 -12 4 -35 35 -48 17 -8 31
-17 31 -21 0 -14 -46 -57 -69 -63 l-23 -7 7 71 c6 65 5 74 -19 115 -40 68 -75
78 -265 73 -252 -7 -574 14 -943 59 -155 19 -189 40 -50 30 48 -4 143 -9 212
-13 69 -3 139 -7 155 -8 17 -1 45 -3 63 -3 18 -1 31 -6 28 -10 -5 -8 46 -22
137 -37 21 -3 37 -2 37 4 0 11 -40 21 -100 25 -22 2 -44 6 -48 10 -4 4 25 4
63 1 39 -4 194 -8 345 -9 l276 -3 2 31 c4 51 33 58 102 24z m-2441 -143 c32
-12 81 -28 110 -36 28 -7 51 -15 51 -18 0 -4 -20 -17 -45 -30 l-45 -24 -68 18
c-79 21 -96 31 -116 70 -31 60 -2 66 113 20z m261 -81 c50 -14 101 -27 215
-53 22 -6 58 -14 80 -20 22 -6 57 -13 77 -16 30 -4 127 -55 104 -55 -21 0
-296 42 -321 49 -29 8 -28 9 20 15 28 4 57 8 65 10 8 1 -13 6 -47 10 -48 6
-69 4 -93 -7 -27 -14 -39 -14 -136 6 -101 21 -105 22 -83 37 13 8 28 20 33 27
14 16 21 16 86 -3z m-375 -55 c22 -6 55 -18 73 -26 l33 -16 -48 -51 c-27 -28
-58 -63 -70 -79 -18 -24 -24 -26 -48 -17 -51 20 -104 12 -135 -18 -40 -41 -48
-92 -20 -137 12 -19 25 -35 28 -35 4 0 15 -6 24 -14 16 -12 15 -17 -6 -84 -12
-40 -25 -75 -29 -78 -12 -13 -98 39 -136 83 -51 57 -64 98 -59 181 11 193 210
341 393 291z m351 -29 c36 0 35 -12 -4 -32 -56 -30 -140 -117 -167 -174 -73
-155 -45 -350 69 -472 194 -207 590 -166 746 78 52 80 74 216 50 300 -8 28 -7
37 5 46 21 15 19 24 -5 24 -11 0 -20 4 -20 8 0 5 -16 34 -35 66 l-35 59 117
-8 c65 -4 132 -8 148 -9 17 -1 44 -3 61 -4 l30 -2 -30 -62 c-29 -59 -31 -71
-31 -173 0 -101 2 -115 28 -168 88 -179 298 -276 508 -234 195 38 324 147 365
307 26 103 6 252 -37 265 -23 8 -39 -1 -39 -21 0 -8 10 -14 24 -14 23 0 25 -5
31 -66 18 -164 -38 -291 -163 -371 -274 -176 -631 -54 -693 237 -14 64 2 164
37 233 13 27 22 53 18 58 -8 14 155 11 337 -7 99 -10 272 -17 439 -18 152 0
278 -5 282 -10 3 -5 0 -16 -8 -23 -17 -18 -10 -33 16 -33 26 0 43 -28 83 -140
103 -284 133 -531 142 -1165 3 -225 14 -520 23 -655 24 -347 23 -856 -1 -1005
-67 -407 -195 -656 -424 -829 -253 -191 -599 -286 -1040 -286 -248 0 -441 29
-640 95 -304 101 -508 264 -627 500 -121 241 -151 568 -105 1135 26 316 30
630 11 845 -39 449 -44 537 -39 725 13 466 133 777 380 988 21 18 36 36 33 40
-3 5 27 0 67 -10 40 -10 81 -18 93 -18z m2351 -57 l26 -45 -24 -19 c-27 -20
-20 -36 10 -20 23 13 26 9 35 -42 17 -91 -32 -197 -116 -255 -74 -51 -76 -50
-114 62 l-33 98 21 37 c24 42 19 91 -10 91 -12 1 -9 5 10 16 15 8 31 26 34 39
4 18 13 25 31 25 15 0 37 13 56 33 18 18 35 31 39 29 4 -2 20 -24 35 -49z
m-2161 22 c44 -8 133 -21 199 -30 162 -21 188 -25 181 -32 -3 -3 8 -23 24 -44
59 -74 75 -123 75 -239 0 -93 -3 -112 -26 -161 -125 -266 -530 -329 -728 -114
-70 78 -95 145 -95 265 -1 83 3 102 27 156 33 72 100 141 177 183 64 36 63 36
166 16z m424 -11 c142 -27 155 -34 51 -29 -52 3 -100 10 -107 16 -7 6 -25 14
-41 19 -49 15 5 11 97 -6z m1505 -104 c4 -6 -10 -9 -37 -9 l-43 2 35 7 c19 4
36 8 37 9 1 0 5 -3 8 -9z m352 -1900 c63 -31 103 -77 103 -117 0 -30 -10 -34
-41 -18 -35 19 -39 19 -39 0 0 -9 11 -21 25 -27 28 -12 30 -20 15 -49 -16 -29
-76 -25 -147 12 -60 31 -61 31 -67 83 -3 28 -6 75 -6 105 l0 54 48 -7 c26 -3
75 -20 109 -36z m-3018 -27 c0 -27 -4 -68 -7 -92 -7 -47 -3 -43 -132 -112 -42
-23 -88 -24 -112 -2 -25 22 -23 38 7 51 14 6 25 18 25 27 0 17 -25 21 -35 5
-3 -5 -15 -10 -26 -10 -14 0 -19 7 -19 25 0 75 126 153 248 155 l52 0 -1 -47z
m2591 -1964 c97 -95 133 -199 84 -240 -8 -6 -15 -10 -17 -8 -1 2 -15 31 -32
63 -16 33 -36 62 -42 64 -18 5 -16 -33 1 -47 8 -7 22 -33 30 -58 20 -57 9 -73
-47 -73 -38 0 -45 6 -143 108 -57 59 -104 110 -104 114 0 4 8 9 18 12 9 3 51
33 92 65 41 33 80 60 87 60 6 1 39 -26 73 -60z m-2218 -21 c41 -29 97 -64 126
-77 29 -14 52 -27 52 -31 0 -3 -16 -12 -35 -19 -20 -7 -75 -44 -123 -83 -134
-108 -183 -127 -223 -87 -24 24 -20 40 23 109 17 27 27 53 23 59 -10 17 -22 5
-61 -65 -41 -74 -54 -73 -61 3 -4 42 -1 54 26 90 22 31 163 151 178 153 1 0
35 -24 75 -52z"/>
<path d="M3020 4352 c0 -5 9 -17 20 -27 16 -14 20 -15 20 -4 0 16 -19 39 -32
39 -4 0 -8 -4 -8 -8z"/>
<path d="M3131 4327 c-6 -8 -8 -17 -5 -20 7 -7 44 14 44 25 0 13 -27 9 -39 -5z"/>
<path d="M3967 4293 c-4 -3 -7 -12 -7 -20 0 -16 46 -18 56 -2 11 19 -33 39
-49 22z"/>
<path d="M4161 4291 c-19 -12 -5 -31 23 -31 29 0 39 10 25 27 -13 15 -28 16
-48 4z"/>
<path d="M4255 4291 c-10 -17 4 -31 31 -31 19 0 25 5 22 18 -4 19 -43 29 -53
13z"/>
<path d="M3860 4274 c0 -11 8 -14 27 -12 39 4 42 28 4 28 -21 0 -31 -5 -31
-16z"/>
<path d="M3402 4230 c-94 -57 -75 -230 28 -261 47 -14 79 -7 119 27 76 64 60
193 -29 239 -40 21 -79 19 -118 -5z m148 -135 c16 -19 3 -55 -20 -55 -25 0
-41 29 -29 52 12 22 32 23 49 3z"/>
<path d="M3110 4233 c0 -4 7 -17 15 -27 17 -23 34 -13 19 11 -12 19 -34 29
-34 16z"/>
<path d="M3110 3841 c-72 -22 -130 -77 -130 -122 0 -8 -18 -23 -39 -33 -84
-36 -134 -132 -111 -210 14 -46 60 -96 89 -96 18 0 21 -6 21 -45 0 -126 50
-215 120 -215 27 0 48 8 69 26 l31 26 31 -26 c39 -34 70 -41 112 -27 63 21 72
41 71 152 l-2 99 43 0 c82 0 153 80 139 156 -8 45 -68 114 -130 150 -32 19
-43 32 -48 59 -8 39 -51 85 -98 102 -37 13 -130 15 -168 4z m-105 -195 c26
-24 99 -46 153 -46 45 0 142 29 174 52 28 20 32 20 64 5 50 -24 112 -84 124
-121 13 -40 1 -76 -36 -111 -35 -33 -78 -32 -157 1 -91 39 -165 41 -256 10
-99 -35 -154 -34 -186 0 -37 40 -42 85 -14 141 21 42 76 93 100 93 4 0 20 -11
34 -24z m142 -332 c-3 -113 -4 -118 -31 -140 -33 -29 -77 -31 -100 -5 -34 38
-59 166 -38 198 6 10 135 58 165 62 4 1 6 -51 4 -115z m154 92 c36 -15 36 -16
43 -91 10 -107 2 -140 -39 -159 -46 -22 -59 -20 -94 15 -28 28 -31 37 -31 92
0 34 3 86 7 116 l6 53 36 -5 c20 -3 52 -12 72 -21z"/>
<path d="M4570 4383 c0 -19 11 -43 21 -43 13 0 11 14 -6 36 -8 10 -15 14 -15
7z"/>
<path d="M4555 4259 c-4 -6 -5 -12 -2 -15 7 -7 37 7 37 17 0 13 -27 11 -35 -2z"/>
<path d="M4660 4240 c6 -11 17 -20 26 -20 12 0 12 4 4 20 -6 11 -17 20 -26 20
-12 0 -12 -4 -4 -20z"/>
<path d="M2294 4191 c-36 -22 -64 -75 -64 -121 0 -117 130 -183 215 -109 43
38 60 93 45 148 -15 57 -69 101 -123 101 -23 0 -56 -8 -73 -19z m151 -156 c0
-23 -5 -30 -19 -30 -24 0 -41 27 -33 49 4 11 15 16 29 14 18 -2 23 -9 23 -33z"/>
<path d="M3806 6265 c-22 -17 -17 -29 8 -19 9 3 16 12 16 20 0 17 0 17 -24 -1z"/>
<path d="M3900 6252 c0 -11 22 -32 32 -32 5 0 4 9 -2 20 -11 20 -30 28 -30 12z"/>
<path d="M2342 6183 c-9 -3 -7 -13 9 -34 19 -26 49 -40 49 -21 0 16 -46 60
-58 55z"/>
<path d="M2512 6144 c-22 -15 -30 -44 -13 -44 16 0 61 41 56 51 -8 13 -17 11
-43 -7z"/>
<path d="M2333 6011 c-24 -20 -30 -41 -13 -41 19 0 60 32 60 46 0 19 -21 17
-47 -5z"/>
<path d="M2473 6004 c-7 -19 37 -68 50 -55 6 6 1 21 -12 40 -25 35 -29 37 -38
15z"/>
<path d="M2387 5849 c-18 -11 -23 -34 -8 -43 13 -8 38 3 45 19 7 20 -16 35
-37 24z"/>
<path d="M2300 5770 c-9 -16 -8 -21 5 -26 23 -9 47 4 43 23 -5 26 -35 28 -48
3z"/>
<path d="M2245 5700 c-14 -16 -16 -23 -6 -33 15 -15 46 3 46 28 0 26 -19 29
-40 5z"/>
<path d="M2194 5623 c-13 -22 -7 -43 11 -43 17 0 38 36 30 50 -10 15 -29 12
-41 -7z"/>
<path d="M2151 5528 c-5 -13 -5 -27 0 -32 11 -13 39 12 39 35 0 26 -29 24 -39
-3z"/>
<path d="M2127 5443 c-4 -3 -7 -17 -7 -30 0 -35 34 -26 38 10 3 26 -14 37 -31
20z"/>
<path d="M1760 4928 c0 -18 27 -44 37 -34 4 4 -3 16 -15 29 -18 17 -22 18 -22
5z"/>
<path d="M1875 4900 c-10 -11 -15 -20 -11 -20 14 0 46 21 46 30 0 16 -16 11
-35 -10z"/>
<path d="M1753 4813 c-7 -2 -13 -9 -13 -14 0 -14 26 -10 40 6 10 12 10 15 -1
14 -8 0 -20 -3 -26 -6z"/>
<path d="M1850 4801 c0 -13 29 -35 37 -28 7 8 -15 37 -28 37 -5 0 -9 -4 -9 -9z"/>
</g>
</svg>
